<?xml version="1.0" encoding="UTF-8"?>
<svg xmlns="http://www.w3.org/2000/svg" xmlns:xlink="http://www.w3.org/1999/xlink" width="20pt" height="20pt" viewBox="0 0 20 20" version="1.1">
<g id="surface10493495">
<rect x="0" y="0" width="20" height="20" style="fill:rgb(21.568627%,20%,15.686275%);fill-opacity:1;stroke:none;"/>
<path style=" stroke:none;fill-rule:nonzero;fill:rgb(100%,100%,100%);fill-opacity:1;" d="M 8.242188 1.875 L 8.144531 2.382812 L 7.773438 4.238281 C 7.175781 4.472656 6.640625 4.800781 6.152344 5.195312 L 4.335938 4.570312 L 3.847656 4.414062 L 3.59375 4.863281 L 2.34375 7.011719 L 2.089844 7.460938 L 2.460938 7.792969 L 3.867188 9.023438 C 3.816406 9.34375 3.75 9.664062 3.75 10 C 3.75 10.335938 3.816406 10.65625 3.867188 10.976562 L 2.460938 12.207031 L 2.089844 12.539062 L 2.34375 12.988281 L 3.59375 15.136719 L 3.847656 15.585938 L 4.335938 15.429688 L 6.152344 14.804688 C 6.640625 15.199219 7.175781 15.527344 7.773438 15.761719 L 8.144531 17.617188 L 8.242188 18.125 L 11.757812 18.125 L 11.855469 17.617188 L 12.226562 15.761719 C 12.824219 15.527344 13.359375 15.199219 13.847656 14.804688 L 15.664062 15.429688 L 16.152344 15.585938 L 16.40625 15.136719 L 17.65625 12.988281 L 17.910156 12.539062 L 17.539062 12.207031 L 16.132812 10.976562 C 16.183594 10.65625 16.25 10.335938 16.25 10 C 16.25 9.664062 16.183594 9.34375 16.132812 9.023438 L 17.539062 7.792969 L 17.910156 7.460938 L 17.65625 7.011719 L 16.40625 4.863281 L 16.152344 4.414062 L 15.664062 4.570312 L 13.847656 5.195312 C 13.359375 4.800781 12.824219 4.472656 12.226562 4.238281 L 11.855469 2.382812 L 11.757812 1.875 Z M 9.257812 3.125 L 10.742188 3.125 L 11.054688 4.746094 L 11.132812 5.117188 L 11.484375 5.234375 C 12.195312 5.457031 12.839844 5.832031 13.378906 6.328125 L 13.652344 6.582031 L 14.003906 6.464844 L 15.585938 5.917969 L 16.328125 7.1875 L 15.078125 8.300781 L 14.785156 8.535156 L 14.882812 8.90625 C 14.964844 9.261719 15 9.625 15 10 C 15 10.375 14.964844 10.738281 14.882812 11.09375 L 14.804688 11.464844 L 15.078125 11.699219 L 16.328125 12.8125 L 15.585938 14.082031 L 14.003906 13.535156 L 13.652344 13.417969 L 13.378906 13.671875 C 12.839844 14.167969 12.195312 14.542969 11.484375 14.765625 L 11.132812 14.882812 L 11.054688 15.253906 L 10.742188 16.875 L 9.257812 16.875 L 8.945312 15.253906 L 8.867188 14.882812 L 8.515625 14.765625 C 7.804688 14.542969 7.160156 14.167969 6.621094 13.671875 L 6.347656 13.417969 L 5.996094 13.535156 L 4.414062 14.082031 L 3.671875 12.8125 L 4.921875 11.699219 L 5.214844 11.464844 L 5.117188 11.09375 C 5.035156 10.738281 5 10.375 5 10 C 5 9.625 5.035156 9.261719 5.117188 8.90625 L 5.214844 8.535156 L 4.921875 8.300781 L 3.671875 7.1875 L 4.414062 5.917969 L 5.996094 6.464844 L 6.347656 6.582031 L 6.621094 6.328125 C 7.160156 5.832031 7.804688 5.457031 8.515625 5.234375 L 8.867188 5.117188 L 8.945312 4.746094 Z M 10 6.875 C 8.28125 6.875 6.875 8.28125 6.875 10 C 6.875 11.71875 8.28125 13.125 10 13.125 C 11.71875 13.125 13.125 11.71875 13.125 10 C 13.125 8.28125 11.71875 6.875 10 6.875 Z M 10 8.125 C 11.042969 8.125 11.875 8.957031 11.875 10 C 11.875 11.042969 11.042969 11.875 10 11.875 C 8.957031 11.875 8.125 11.042969 8.125 10 C 8.125 8.957031 8.957031 8.125 10 8.125 Z M 10 8.125 "/>
</g>
</svg>
